<?xml version="1.0" encoding="UTF-8"?><svg id="Layer_2" xmlns="http://www.w3.org/2000/svg" viewBox="0 0 7882.5 1854.59"><g id="Layer_1-2"><path d="M1065.21,1838.89l-148.01-428.33h-378.99c60.55,165.95,172.68,316.2,329.66,428.33H0L542.7,504.57c-82.97-109.89-179.4-208.56-280.32-280.32l926.17-134.55,605.49,1749.19h-728.83ZM885.81,1320.86l-163.71-477.66c-26.91-76.25-62.79-154.74-109.89-230.98l-49.34,123.34c-80.73,197.34-96.43,399.17-51.58,585.31h374.51Z"/><path d="M3229.26,1143.7v695.19h-583.06v-829.74c0-53.82-24.67-89.7-62.79-89.7-56.06,0-94.19,62.79-94.19,156.98v762.47h-560.64v-672.77c0-109.89-26.91-255.65-67.28-367.78l627.91-125.58v197.34c60.55-123.34,181.65-197.34,336.38-197.34,244.44,0,403.66,186.13,403.66,470.94Z"/><path d="M4500.78,717.62v412.63c-197.34-195.1-412.63-322.93-544.94-322.93-42.61,0-71.76,22.43-71.76,53.82,0,134.55,668.28,188.37,668.28,594.28,0,230.98-242.2,383.48-607.73,383.48h-558.4v-441.78c206.31,213.04,455.24,352.08,627.91,352.08,35.88,0,60.55-17.94,60.55-44.85,0-127.83-688.46-105.4-688.46-594.28,0-237.71,251.17-392.45,632.4-392.45h482.15Z"/><path d="M4736.23,601l-118.86-401.42,650.34-127.83v435.06l-531.48,94.19ZM4709.32,1838.89v-672.77c0-109.89-26.91-255.65-67.28-367.78l627.91-125.58v1166.13h-560.64Z"/><path d="M6806.1,1838.89h-627.91c0-334.14-56.06-576.34-145.77-657.07v657.07h-560.64V493.36c0-112.13-26.91-257.89-67.28-367.78L6032.42,0v1089.88l47.09-42.61c78.49-69.52,94.19-199.59,40.37-329.66h652.58c-98.67,154.74-354.32,318.44-645.86,410.39,410.39,0,679.49,282.56,679.49,710.89Z"/><path d="M7882.5,807.32h-396.93v513.54c0,85.22,56.06,141.28,143.52,141.28,74,0,174.92-56.06,253.41-143.52l-134.55,535.97h-385.72c-264.62,0-437.3-168.19-437.3-421.6v-625.67h-118.86v-87.46c260.14-112.13,531.48-318.44,679.49-518.03v515.79h396.93v89.7Z"/></g></svg>